<?xml version="1.0" encoding="utf-8"?>
<!-- Generator: Adobe Illustrator 19.0.0, SVG Export Plug-In . SVG Version: 6.00 Build 0)  -->
<!DOCTYPE svg PUBLIC "-//W3C//DTD SVG 1.1//EN" "http://www.w3.org/Graphics/SVG/1.1/DTD/svg11.dtd">
<svg version="1.1" id="Layer_1" xmlns="http://www.w3.org/2000/svg" xmlns:xlink="http://www.w3.org/1999/xlink" x="0px" y="0px"
	 width="92px" height="92px" viewBox="0 0 92 92" enable-background="new 0 0 92 92" xml:space="preserve">
<g>
	<path fill-rule="evenodd" clip-rule="evenodd" fill="#FFFFFF" d="M67.9,32.8c0.5-0.9,0.5-1.6,0-2c-0.7-0.5-1.3-0.3-2,0.5L49.1,50.6
		c-1.3-0.5-2.7-0.8-4.3-0.8c-3.1,0-5.7,1.1-7.9,3.2c-2.2,2.2-3.3,4.9-3.3,7.9c0,0.1,0,0.2,0,0.2c0,0.1,0,0.2,0,0.2H16.9
		c-1.3-3.4-1.9-7-1.9-10.9c0-8.7,3.1-16.1,9.2-22.2c6.1-6.1,13.5-9.2,22.2-9.2c8.7,0,16.1,3.1,22.2,9.2c6.1,6.1,9.2,13.5,9.2,22.2
		c0,3.9-0.6,7.5-1.8,10.9H56c0-0.1,0-0.1,0-0.2c0-0.1,0-0.1,0-0.2c0-2.8-0.9-5.3-2.8-7.4L67.9,32.8z M49.1,54.9
		c0.4,0.3,0.8,0.6,1.2,1c0.2,0.2,0.3,0.3,0.4,0.5c1.2,1.4,1.8,3,1.8,4.8c0,0.1,0,0.1,0,0.2c0,2-0.8,3.7-2.2,5.1
		c-1.4,1.5-3.2,2.2-5.3,2.2c-2.1,0-3.8-0.7-5.3-2.2c-1.4-1.4-2.2-3.1-2.2-5.1c0,0,0-0.1,0-0.2c0-2.1,0.7-3.8,2.2-5.3
		c1.5-1.5,3.2-2.2,5.3-2.2c0.8,0,1.5,0.1,2.2,0.3C47.9,54.3,48.5,54.5,49.1,54.9z"/>
</g>
</svg>
