<?xml version="1.0" encoding="utf-8"?>
<!-- Generator: Adobe Illustrator 18.1.1, SVG Export Plug-In . SVG Version: 6.00 Build 0)  -->
<!DOCTYPE svg PUBLIC "-//W3C//DTD SVG 1.1//EN" "http://www.w3.org/Graphics/SVG/1.1/DTD/svg11.dtd">
<svg version="1.1" id="PDF_x5F_File" xmlns="http://www.w3.org/2000/svg" xmlns:xlink="http://www.w3.org/1999/xlink" x="0px"
	 y="0px" width="604.2px" height="635.2px" viewBox="0 0 604.2 635.2" enable-background="new 0 0 604.2 635.2"
	 xml:space="preserve">
<g id="PDF_x5F_File_1_">
	<g>
		
			<linearGradient id="SVGID_1_" gradientUnits="userSpaceOnUse" x1="645.2139" y1="727.66" x2="645.2139" y2="603.2953" gradientTransform="matrix(7.670000e-02 0.9971 0.9971 -7.670000e-02 -641.6304 -316.7519)">
			<stop  offset="0" style="stop-color:#CF0000"/>
			<stop  offset="0.3956" style="stop-color:#BD0000"/>
			<stop  offset="1" style="stop-color:#990000"/>
		</linearGradient>
		<path fill="url(#SVGID_1_)" d="M128.1,252.6c-60.1,4.6-120.2,7.8-118.7,27.9c1.5,20,61.5,13.6,121.5,9c3.9-0.3,3.9-0.3,3.9-0.3
			l-2.8-36.9L128.1,252.6z"/>
		
			<linearGradient id="SVGID_2_" gradientUnits="userSpaceOnUse" x1="825.0131" y1="-113.0476" x2="949.377" y2="-113.0476" gradientTransform="matrix(0.9971 -7.670000e-02 -7.670000e-02 -0.9971 -822.1336 227.6839)">
			<stop  offset="0" style="stop-color:#AD0303"/>
			<stop  offset="0.1124" style="stop-color:#C00609"/>
			<stop  offset="0.3352" style="stop-color:#EF0C17"/>
		</linearGradient>
		<path fill="url(#SVGID_2_)" d="M127.9,249.4C67.8,254,7.7,258.6,9.3,278.6c1.5,20,61.4,12.2,121.4,7.6c3.9-0.3,3.9-0.3,3.9-0.3
			l-2.8-36.9L127.9,249.4z"/>
	</g>
	<defs>
		<filter id="Adobe_OpacityMaskFilter" filterUnits="userSpaceOnUse" x="27.3" y="0" width="576.8" height="635.2">
			<feColorMatrix  type="matrix" values="1 0 0 0 0  0 1 0 0 0  0 0 1 0 0  0 0 0 1 0"/>
		</filter>
	</defs>
	<mask maskUnits="userSpaceOnUse" x="27.3" y="0" width="576.8" height="635.2" id="Shadow_1_">
		<g filter="url(#Adobe_OpacityMaskFilter)">
			<g>
				<path d="M81.1,592.9c-0.2,6.4,4.8,11.9,11.2,12.2l489.7,30c6.4,0.3,11.8-4.6,12.1-11l10.1-558c0.3-6.4-4.7-11.8-11.1-12
					l-58.8,0.8L530.7,0L39.3,22.3c-6.4-0.2-11.8,4.8-12,11.2L81.1,592.9z"/>
				<path fill="#0B0B0B" d="M81.4,592.6c-0.2,6.4,4.8,11.9,11.2,12.2l488.6,29.4c6.4,0.3,11.8-4.6,12.1-11l10.5-556.6
					c0.3-6.4-4.7-11.8-11.1-12l-58.5,0.2l-3.5-54.7L40.1,23c-6.4-0.2-11.8,4.8-12,11.2L81.4,592.6z"/>
				<path fill="#161616" d="M81.7,592.4c-0.2,6.4,4.8,11.9,11.2,12.2l487.4,28.7c6.4,0.3,11.8-4.6,12.1-11L603.2,67
					c0.3-6.4-4.7-11.8-11.1-12L534,54.5l-3.5-54.3L40.9,23.7c-6.4-0.2-11.8,4.8-12,11.2L81.7,592.4z"/>
				<path fill="#212121" d="M82,592.1c-0.2,6.4,4.8,11.9,11.2,12.2l486.2,28c6.4,0.3,11.8-4.6,12.1-11l11.3-553.9
					c0.3-6.4-4.7-11.8-11.1-12l-57.8-1.2l-3.5-53.9L41.7,24.3c-6.4-0.2-11.8,4.8-12,11.2L82,592.1z"/>
				<path fill="#2C2C2C" d="M82.3,591.8c-0.2,6.4,4.8,11.9,11.2,12.2l485.1,27.4c6.4,0.3,11.8-4.6,12.1-11l11.7-552.6
					c0.3-6.4-4.7-11.8-11.1-12l-57.4-1.8l-3.5-53.5L42.4,25c-6.4-0.2-11.8,4.8-12,11.2L82.3,591.8z"/>
				<path fill="#373737" d="M82.7,591.5c-0.2,6.4,4.8,11.9,11.2,12.2l483.9,26.7c6.4,0.3,11.8-4.6,12.1-11l12-551.3
					c0.3-6.4-4.7-11.8-11.1-12l-57.1-2.5l-3.4-53.1l-487,25.2c-6.4-0.2-11.8,4.8-12,11.2L82.7,591.5z"/>
				<path fill="#424242" d="M83,591.2c-0.2,6.4,4.8,11.8,11.2,12.2l482.8,26c6.4,0.3,11.8-4.6,12.1-11l12.4-549.9
					c0.3-6.4-4.7-11.8-11.1-12l-56.8-3.2l-3.4-52.7L44,26.3c-6.4-0.2-11.8,4.8-12,11.2L83,591.2z"/>
				<path fill="#4D4D4D" d="M83.3,590.9c-0.2,6.4,4.8,11.8,11.2,12.1l481.6,25.3c6.4,0.3,11.8-4.7,12-11L601,68.8
					c0.3-6.4-4.7-11.8-11.1-12L533.4,53L530,0.7L44.8,27c-6.4-0.2-11.8,4.8-12,11.2L83.3,590.9z"/>
				<path fill="#575757" d="M83.6,590.7c-0.2,6.4,4.8,11.8,11.2,12.1l480.5,24.7c6.4,0.3,11.8-4.7,12-11l13.2-547.2
					c0.3-6.4-4.8-11.8-11.1-12l-56.1-4.5l-3.4-51.9L45.6,27.7c-6.4-0.2-11.8,4.8-12,11.2L83.6,590.7z"/>
				<path fill="#626262" d="M83.9,590.4c-0.2,6.4,4.8,11.8,11.2,12.1l479.3,24c6.4,0.3,11.8-4.7,12-11.1l13.6-545.9
					c0.3-6.4-4.8-11.8-11.1-12l-55.8-5.2l-3.4-51.5L46.3,28.3c-6.4-0.2-11.8,4.8-12,11.2L83.9,590.4z"/>
				<path fill="#6D6D6D" d="M84.2,590.1c-0.2,6.4,4.8,11.8,11.2,12.1l478.2,23.3c6.4,0.3,11.8-4.7,12-11.1l14-544.5
					c0.2-6.4-4.8-11.8-11.1-12l-55.4-5.9L529.7,1L47.1,29c-6.4-0.2-11.8,4.8-12,11.2L84.2,590.1z"/>
				<path fill="#787878" d="M84.5,589.8c-0.2,6.4,4.8,11.8,11.2,12.1l477,22.7c6.4,0.3,11.8-4.7,12-11.1l14.4-543.2
					c0.2-6.4-4.8-11.8-11.1-12l-55.1-6.5l-3.3-50.7L47.9,29.7c-6.4-0.2-11.8,4.8-12,11.2L84.5,589.8z"/>
				<path fill="#838383" d="M84.9,589.5c-0.2,6.4,4.8,11.8,11.2,12.1l475.9,22c6.4,0.3,11.8-4.7,12-11.1l14.8-541.8
					c0.2-6.4-4.8-11.8-11.1-12l-54.8-7.2l-3.3-50.3L48.7,30.3c-6.4-0.2-11.8,4.8-12,11.2L84.9,589.5z"/>
				<path fill="#8E8E8E" d="M85.2,589.2c-0.2,6.4,4.8,11.8,11.2,12.1l474.7,21.3c6.4,0.3,11.8-4.7,12-11.1L598.3,71
					c0.2-6.4-4.8-11.8-11.2-12l-54.4-7.9l-3.3-49.9L49.5,31c-6.4-0.2-11.8,4.8-12,11.2L85.2,589.2z"/>
				<path fill="#999999" d="M85.5,589c-0.2,6.4,4.8,11.8,11.2,12.1l473.6,20.6c6.4,0.3,11.8-4.7,12-11.1l15.6-539.2
					c0.2-6.4-4.8-11.8-11.2-12l-54.1-8.5l-3.2-49.5L50.2,31.7c-6.4-0.2-11.8,4.8-12,11.2L85.5,589z"/>
				<path fill="#A4A4A4" d="M85.8,588.7c-0.2,6.4,4.8,11.8,11.2,12.1l472.4,20c6.4,0.3,11.8-4.7,12-11.1l15.9-537.8
					c0.2-6.4-4.8-11.8-11.2-12l-53.7-9.2l-3.2-49.1L51,32.3c-6.4-0.2-11.8,4.8-12,11.2L85.8,588.7z"/>
				<path fill="#AFAFAF" d="M86.1,588.4c-0.2,6.4,4.8,11.8,11.2,12l471.3,19.3c6.4,0.2,11.8-4.8,12-11.1l16.3-536.5
					c0.2-6.4-4.8-11.8-11.2-12l-53.4-9.9l-3.2-48.7L51.8,33c-6.4-0.2-11.8,4.8-12,11.2L86.1,588.4z"/>
				<path fill="#BABABA" d="M86.4,588.1c-0.2,6.4,4.8,11.8,11.2,12l470.1,18.6c6.4,0.2,11.8-4.8,12-11.1l16.7-535.1
					c0.2-6.4-4.8-11.8-11.2-12L532.2,50L529,1.7l-476.5,32c-6.4-0.2-11.8,4.8-12,11.2L86.4,588.1z"/>
				<path fill="#C5C5C5" d="M86.7,587.8c-0.2,6.4,4.8,11.8,11.2,12l469,18c6.4,0.2,11.8-4.8,12-11.2L596,72.9
					c0.2-6.4-4.8-11.8-11.2-12l-52.7-11.2l-3.2-47.9L53.4,34.3c-6.4-0.2-11.8,4.8-12,11.2L86.7,587.8z"/>
				<path fill="#D0D0D0" d="M87.1,587.5c-0.2,6.4,4.8,11.8,11.2,12l467.8,17.3c6.4,0.2,11.8-4.8,12-11.2l17.5-532.4
					c0.2-6.4-4.8-11.8-11.2-12L532,49.4l-3.1-47.5L54.1,35c-6.4-0.2-11.8,4.8-12,11.2L87.1,587.5z"/>
				<path fill="#DBDBDB" d="M87.4,587.3c-0.2,6.4,4.8,11.8,11.2,12l466.7,16.6c6.4,0.2,11.8-4.8,12-11.2l17.9-531.1
					c0.2-6.4-4.8-11.8-11.2-12l-52.1-12.6L528.8,2L54.9,35.7c-6.4-0.2-11.8,4.8-12,11.2L87.4,587.3z"/>
				<path fill="#E6E6E6" d="M87.7,587c-0.2,6.4,4.8,11.8,11.2,12l465.5,16c6.4,0.2,11.8-4.8,12-11.2L594.7,74
					c0.2-6.4-4.8-11.8-11.2-12l-51.7-13.2l-3.1-46.7l-473,34.3c-6.4-0.2-11.8,4.8-12,11.2L87.7,587z"/>
			</g>
		</g>
	</mask>
	<path id="Shadow" mask="url(#Shadow_1_)" fill="#CCCCCC" d="M595.2,54.5L576,615.3L87.3,598.6l0.1-1.5l-1.1,0.1L43.2,37.5L530.7,0
		L39.3,22.3c-6.4-0.2-11.8,4.8-12,11.2l53.8,559.4c-0.2,6.4,4.8,11.9,11.2,12.2l489.7,30c6.4,0.3,11.8-4.6,12.1-11l10.1-558
		C604.4,60.6,600.5,55.7,595.2,54.5z"/>
	<g id="Other_x5F_Pages">
		
			<linearGradient id="Page_3_" gradientUnits="userSpaceOnUse" x1="514.4922" y1="335.3357" x2="1003.496" y2="335.3357" gradientTransform="matrix(-0.9994 -3.430000e-02 -3.430000e-02 0.9994 1111.2852 17.3752)">
			<stop  offset="0" style="stop-color:#EFF0F1"/>
			<stop  offset="0.3846" style="stop-color:#F8F8F9"/>
			<stop  offset="0.5385" style="stop-color:#FCFCFC"/>
			<stop  offset="0.9341" style="stop-color:#F9F9F9"/>
			<stop  offset="1" style="stop-color:#EFEFEF"/>
		</linearGradient>
		<polygon id="Page_2_" fill="url(#Page_3_)" points="87.3,598.6 576,615.3 595.2,54.4 106.5,37.6 		"/>
		
			<linearGradient id="Page_4_" gradientUnits="userSpaceOnUse" x1="536.6583" y1="320.8988" x2="1025.6588" y2="320.8989" gradientTransform="matrix(-1 3.600000e-03 3.600000e-03 1 1110.8879 -6.7408)">
			<stop  offset="0" style="stop-color:#EFF0F1"/>
			<stop  offset="0.3846" style="stop-color:#F8F8F9"/>
			<stop  offset="0.5385" style="stop-color:#FCFCFC"/>
			<stop  offset="0.9341" style="stop-color:#F9F9F9"/>
			<stop  offset="1" style="stop-color:#EFEFEF"/>
		</linearGradient>
		<polygon id="Page_1_" fill="url(#Page_4_)" points="87.4,598.5 576.4,596.7 574.4,35.5 85.4,37.2 		"/>
		<defs>
			<filter id="Adobe_OpacityMaskFilter_1_" filterUnits="userSpaceOnUse" x="98.3" y="53.7" width="488" height="553.5">
				<feColorMatrix  type="matrix" values="1 0 0 0 0  0 1 0 0 0  0 0 1 0 0  0 0 0 1 0"/>
			</filter>
		</defs>
		<mask maskUnits="userSpaceOnUse" x="98.3" y="53.7" width="488" height="553.5" id="Shadow_5_">
			<g filter="url(#Adobe_OpacityMaskFilter_1_)">
				<g>
					<polygon points="586.3,315.3 585.3,54 346,45.8 106.2,46.7 97.3,307.8 98.3,598.9 337.4,607.1 576.3,606.3 					"/>
					<path fill="#0B0B0B" d="M106.2,46.3l-9,261.3c0,0,0.5,291.2,0.5,291.4l239.4,7.8l239.1-0.9l9.5-290.8l-0.9-261l-239.1-8.2
						L106.2,46.3z"/>
					<path fill="#161616" d="M106.2,45.8l-9,261.5c0,0,0,291.3,0,291.6l239.7,7.3l239.4-0.9l8.9-290.6L584.3,54l-238.8-8.2
						L106.2,45.8z"/>
					<path fill="#212121" d="M106.2,45.4l-9,261.7c0,0-0.5,291.4-0.5,291.8l239.9,6.9l239.6-0.9l8.4-290.4L583.8,54l-238.5-8.2
						L106.2,45.4z"/>
					<path fill="#2C2C2C" d="M106.3,45l-9,261.9c0,0-1.1,291.5-1.1,292l240.2,6.5l239.9-0.9l7.9-290.1L583.3,54L345,45.8L106.3,45z"
						/>
					<path fill="#373737" d="M106.3,44.5l-9,262.1c0,0-1.6,291.6-1.6,292.2l240.4,6l240.2-0.9l7.4-289.9L582.7,54l-238-8.2
						L106.3,44.5z"/>
					<path fill="#424242" d="M106.3,44.1l-9,262.3c0,0-2.1,291.6-2.1,292.4l240.7,5.6l240.4-0.9l6.8-289.7l-0.9-260l-237.7-8.1
						L106.3,44.1z"/>
					<path fill="#4D4D4D" d="M106.3,43.7l-9,262.5c0,0-2.7,291.7-2.7,292.6l241,5.2l240.7-0.9l6.3-289.4l-0.9-259.7l-237.5-8.1
						L106.3,43.7z"/>
					<path fill="#585858" d="M106.3,43.2l-9,262.7c0,0-3.2,291.8-3.2,292.8l241.2,4.7l240.9-0.9l5.8-289.2l-0.9-259.5L344,45.8
						L106.3,43.2z"/>
					<path fill="#636363" d="M106.3,42.8l-9,262.9c0,0-3.7,291.9-3.7,293l241.5,4.3l241.2-0.9l5.3-289l-0.9-259.3l-237-8.1
						L106.3,42.8z"/>
					<path fill="#6E6E6E" d="M106.4,42.4l-9,263.1c0,0-4.2,292-4.2,293.3l241.8,3.9l241.5-0.9l4.7-288.8l-0.9-259.1l-236.7-8.1
						L106.4,42.4z"/>
					<path fill="#787878" d="M106.4,42l-9,263.3c0,0-4.8,292-4.8,293.5l242,3.4l241.7-0.9l4.2-288.5l-0.9-258.9l-236.4-8.1L106.4,42
						z"/>
					<path fill="#838383" d="M106.4,41.5l-9,263.5c0,0-5.3,292.1-5.3,293.7l242.3,3l242-0.9l3.7-288.3l-0.9-258.7L343,45.7
						L106.4,41.5z"/>
					<path fill="#8E8E8E" d="M106.4,41.1l-9,263.7c0,0-5.8,292.2-5.8,293.9l242.6,2.6l242.2-0.9l3.2-288.1l-0.9-258.5l-235.9-8.1
						L106.4,41.1z"/>
					<path fill="#999999" d="M106.4,40.7l-9,263.9c0,0-6.3,292.3-6.3,294.1l242.8,2.2l242.5-0.9l2.7-287.8l-0.9-258.3l-235.6-8.1
						L106.4,40.7z"/>
					<path fill="#A4A4A4" d="M106.4,40.2l-9.1,264.1c0,0-6.9,292.4-6.9,294.3l243.1,1.7l242.8-0.9l2.1-287.6l-0.9-258.1l-235.4-8.1
						L106.4,40.2z"/>
					<path fill="#AFAFAF" d="M106.4,39.8l-9.1,264.3c0,0-7.4,292.4-7.4,294.5l243.3,1.3l243-0.9l1.6-287.4L577,53.8l-235.1-8.1
						L106.4,39.8z"/>
					<path fill="#BABABA" d="M106.5,39.4l-9.1,264.5c0,0-7.9,292.5-7.9,294.7l243.6,0.9l243.3-0.9l1.1-287.2l-0.9-257.7l-234.8-8
						L106.5,39.4z"/>
					<path fill="#C5C5C5" d="M106.5,38.9l-9.1,264.7c0,0-8.5,292.6-8.4,294.9l243.9,0.4l243.5-0.9l0.6-286.9L576,53.7l-234.6-8
						L106.5,38.9z"/>
					<path fill="#D0D0D0" d="M106.5,38.5l-9.1,264.9c0,0-9,292.7-9,295.1l244.1,0l243.8-0.9l0-286.7l-0.9-257.2l-234.3-8L106.5,38.5
						z"/>
					<path fill="#DBDBDB" d="M106.5,38.1l-9.1,265.1c0,0-9.5,292.8-9.5,295.4l244.4-0.4l244-0.9l-0.5-286.5l-0.9-257l-234.1-8
						L106.5,38.1z"/>
					<polygon fill="#E6E6E6" points="576.4,596.7 574.4,53.7 106.5,37.6 87.4,595.7 87.4,598.5 					"/>
				</g>
			</g>
		</mask>
		<polygon id="Shadow_4_" mask="url(#Shadow_5_)" fill="#B3B3B3" points="586.3,315.3 585.3,54 574.4,53.7 576.4,596.7 98.3,598.4 
			98.3,598.9 337.4,607.1 576.3,606.3 		"/>
		
			<linearGradient id="Page_5_" gradientUnits="userSpaceOnUse" x1="511.0262" y1="305.9988" x2="1000.0016" y2="305.9988" gradientTransform="matrix(-0.9992 4.020000e-02 4.020000e-02 0.9992 1062.4633 -28.5598)">
			<stop  offset="0" style="stop-color:#EFF0F1"/>
			<stop  offset="0.3846" style="stop-color:#F8F8F9"/>
			<stop  offset="0.5385" style="stop-color:#FCFCFC"/>
			<stop  offset="0.9341" style="stop-color:#F9F9F9"/>
			<stop  offset="1" style="stop-color:#EFEFEF"/>
		</linearGradient>
		<polygon id="Page" fill="url(#Page_5_)" points="86.8,597.8 575.4,578.1 552.9,17.3 64.3,37 		"/>
		<defs>
			<filter id="Adobe_OpacityMaskFilter_2_" filterUnits="userSpaceOnUse" x="97.7" y="35.5" width="478" height="562.4">
				<feColorMatrix  type="matrix" values="1 0 0 0 0  0 1 0 0 0  0 0 1 0 0  0 0 0 1 0"/>
			</filter>
		</defs>
		<mask maskUnits="userSpaceOnUse" x="97.7" y="35.5" width="478" height="562.4" id="Shadow_6_">
			<g filter="url(#Adobe_OpacityMaskFilter_2_)">
				<g>
					<polygon points="575,296.5 564.5,35.5 325,36.1 85.4,45.7 86,307 97.7,597.9 337,597.3 575.7,587.7 					"/>
					<path fill="#0B0B0B" d="M85.4,45.3L86,306.7c0,0,11.2,291,11.2,291.1l239.5-1l238.9-9.6l-1.2-291L564,35.5l-239.2,0.6
						L85.4,45.3z"/>
					<path fill="#161616" d="M85.4,44.8L86,306.5c0,0,10.7,291.1,10.7,291.4l239.8-1.5l239.2-9.6l-1.7-290.7L563.5,35.5l-238.9,0.6
						L85.4,44.8z"/>
					<path fill="#212121" d="M85.4,44.4L86,306.3c0,0,10.1,291.2,10.1,291.6l240-1.9l239.4-9.6l-2.2-290.5L562.9,35.5l-238.7,0.6
						L85.4,44.4z"/>
					<path fill="#2C2C2C" d="M85.4,44L86,306c0,0,9.6,291.3,9.6,291.8l240.3-2.3l239.7-9.6l-2.8-290.2L562.4,35.5L324,36.1L85.4,44z
						"/>
					<path fill="#373737" d="M85.4,43.5L86,305.8c0,0,9.1,291.4,9.1,292.1l240.5-2.8l240-9.7l-3.3-290l-10.5-260l-238.1,0.6
						L85.4,43.5z"/>
					<path fill="#424242" d="M85.4,43.1L86,305.6c0,0,8.6,291.5,8.6,292.3l240.8-3.2l240.2-9.7l-3.8-289.7L561.4,35.5l-237.9,0.6
						L85.4,43.1z"/>
					<path fill="#4D4D4D" d="M85.4,42.7L86,305.3c0,0,8,291.6,8.1,292.5l241-3.7l240.5-9.7L571.3,295L560.9,35.5l-237.6,0.6
						L85.4,42.7z"/>
					<path fill="#585858" d="M85.4,42.3L86,305.1c0,0,7.5,291.7,7.6,292.8l241.2-4.1l240.7-9.7l-4.8-289.2L560.3,35.5L323,36.1
						L85.4,42.3z"/>
					<path fill="#636363" d="M85.4,41.8l0.6,263c0,0,7,291.8,7,293l241.5-4.5l241-9.7l-5.3-289L559.8,35.5l-237.1,0.6L85.4,41.8z"/>
					<path fill="#6E6E6E" d="M85.4,41.4L86,304.6c0,0,6.5,291.9,6.5,293.2l241.7-5l241.3-9.7l-5.8-288.7L559.3,35.5l-236.8,0.6
						L85.4,41.4z"/>
					<path fill="#787878" d="M85.4,41L86,304.4c0,0,5.9,292,6,293.4l242-5.4l241.5-9.7l-6.4-288.5L558.8,35.5l-236.6,0.6L85.4,41z"
						/>
					<path fill="#838383" d="M85.4,40.5L86,304.2c0,0,5.4,292.1,5.5,293.7l242.2-5.9l241.8-9.7L568.7,294L558.3,35.5L322,36.1
						L85.4,40.5z"/>
					<path fill="#8E8E8E" d="M85.4,40.1L86,303.9c0,0,4.9,292.2,5,293.9l242.5-6.3l242-9.7l-7.4-288L557.8,35.5l-236,0.6L85.4,40.1z
						"/>
					<path fill="#999999" d="M85.4,39.7l0.6,264c0,0,4.4,292.3,4.4,294.1l242.7-6.7l242.3-9.7l-7.9-287.7L557.2,35.5l-235.8,0.6
						L85.4,39.7z"/>
					<path fill="#A4A4A4" d="M85.4,39.2L86,303.5c0,0,3.8,292.4,3.9,294.4l243-7.2l242.6-9.8l-8.4-287.5L556.7,35.5l-235.5,0.6
						L85.4,39.2z"/>
					<path fill="#AFAFAF" d="M85.4,38.8L86,303.2c0,0,3.3,292.5,3.4,294.6l243.2-7.6l242.8-9.8l-8.9-287.2L556.2,35.5L321,36.1
						L85.4,38.8z"/>
					<path fill="#BABABA" d="M85.4,38.4L86,303c0,0,2.8,292.6,2.9,294.8l243.5-8.1l243.1-9.8L566,293L555.7,35.5l-235,0.6L85.4,38.4
						z"/>
					<path fill="#C5C5C5" d="M85.4,37.9L86,302.8c0,0,2.3,292.7,2.4,295l243.7-8.5l243.3-9.8l-10-286.8L555.2,35.5l-234.7,0.6
						L85.4,37.9z"/>
					<path fill="#D0D0D0" d="M85.4,37.5l0.6,265c0,0,1.7,292.8,1.8,295.3l244-9l243.6-9.8L565,292.5l-10.3-257l-234.5,0.6L85.4,37.5
						z"/>
					<path fill="#DBDBDB" d="M85.4,37.1L86,302.3c0,0,1.2,292.9,1.3,295.5l244.2-9.4l243.9-9.8l-11-286.3L554.1,35.5l-234.2,0.6
						L85.4,37.1z"/>
					<polygon fill="#E6E6E6" points="575.4,578.1 553.6,35.5 85.4,36.6 86.7,595.1 86.8,597.8 					"/>
				</g>
			</g>
		</mask>
		<polygon id="Shadow_3_" mask="url(#Shadow_6_)" fill="#B3B3B3" points="575,296.5 564.5,35.5 553.6,35.5 575.4,578.1 97.7,597.4 
			97.7,597.9 337,597.3 575.7,587.7 		"/>
		<defs>
			<filter id="Adobe_OpacityMaskFilter_3_" filterUnits="userSpaceOnUse" x="97.1" y="17.7" width="477.3" height="579.1">
				<feColorMatrix  type="matrix" values="1 0 0 0 0  0 1 0 0 0  0 0 1 0 0  0 0 0 1 0"/>
			</filter>
		</defs>
		<mask maskUnits="userSpaceOnUse" x="97.1" y="17.7" width="477.3" height="579.1" id="Shadow_7_">
			<g filter="url(#Adobe_OpacityMaskFilter_3_)">
				<g>
					<polygon points="563.1,278.2 543,17.7 303.7,27.1 64.6,45.5 74.8,306.5 97.2,596.8 336.3,587.5 574.4,569.1 					"/>
					<polygon fill="#0B0B0B" points="64.6,45 74.8,306.2 96.6,596.7 99.2,596.7 335.9,587.1 574.4,568.7 562.5,278 542.5,17.7 
						303.5,27.1 					"/>
					<polygon fill="#161616" points="64.6,44.6 74.8,305.9 96.1,596.6 98.6,596.8 335.6,586.6 574.4,568.2 562,277.8 542,17.8 
						303.2,27.1 					"/>
					<polygon fill="#212121" points="64.6,44.2 74.8,305.6 95.6,596.5 97.9,596.8 335.2,586.2 574.3,567.8 561.4,277.6 541.4,17.8 
						303,27.1 					"/>
					<polygon fill="#2C2C2C" points="64.5,43.8 74.8,305.3 95.1,596.4 97.3,596.8 334.8,585.8 574.3,567.3 560.9,277.4 540.9,17.8 
						302.7,27.1 					"/>
					<polygon fill="#373737" points="64.5,43.3 74.8,305.1 94.5,596.3 96.6,596.8 334.5,585.3 574.3,566.9 560.4,277.2 540.4,17.8 
						302.4,27.1 					"/>
					<polygon fill="#424242" points="64.5,42.9 74.7,304.8 94,596.1 96,596.8 334.1,584.9 574.2,566.4 559.8,277 539.9,17.8 
						302.2,27.1 					"/>
					<polygon fill="#4D4D4D" points="64.5,42.5 74.7,304.5 93.5,596 95.3,596.9 333.8,584.5 574.2,566 559.3,276.8 539.4,17.9 
						301.9,27.1 					"/>
					<polygon fill="#585858" points="64.5,42 74.7,304.2 92.9,595.9 94.7,596.9 333.4,584.1 574.2,565.5 558.8,276.7 538.8,17.9 
						301.7,27.1 					"/>
					<polygon fill="#636363" points="64.5,41.6 74.7,303.9 92.4,595.8 94,596.9 333.1,583.6 574.2,565.1 558.2,276.5 538.3,17.9 
						301.4,27.2 					"/>
					<polygon fill="#6E6E6E" points="64.4,41.2 74.7,303.6 91.9,595.7 93.4,596.9 332.7,583.2 574.1,564.6 557.7,276.3 537.8,17.9 
						301.2,27.2 					"/>
					<polygon fill="#787878" points="64.4,40.7 74.7,303.3 91.3,595.6 92.7,596.9 332.4,582.8 574.1,564.1 557.2,276.1 537.3,17.9 
						300.9,27.2 					"/>
					<polygon fill="#838383" points="64.4,40.3 74.7,303 90.8,595.5 92.1,597 332,582.3 574.1,563.7 556.6,275.9 536.8,18 
						300.7,27.2 					"/>
					<polygon fill="#8E8E8E" points="64.4,39.9 74.7,302.7 90.3,595.3 91.4,597 331.7,581.9 574,563.2 556.1,275.7 536.3,18 
						300.4,27.2 					"/>
					<polygon fill="#999999" points="64.4,39.4 74.7,302.4 89.8,595.2 90.8,597 331.3,581.5 574,562.8 555.6,275.5 535.7,18 
						300.1,27.2 					"/>
					<polygon fill="#A4A4A4" points="64.4,39 74.6,302.1 89.2,595.1 90.1,597 331,581 574,562.3 555,275.3 535.2,18 299.9,27.2 
											"/>
					<polygon fill="#AFAFAF" points="64.3,38.6 74.6,301.8 88.7,595 89.5,597 330.6,580.6 573.9,561.9 554.5,275.1 534.7,18 
						299.6,27.2 					"/>
					<polygon fill="#BABABA" points="64.3,38.1 74.6,301.5 88.2,594.9 88.9,597.1 330.3,580.2 573.9,561.4 554,275 534.2,18.1 
						299.4,27.2 					"/>
					<polygon fill="#C5C5C5" points="64.3,37.7 74.6,301.2 87.6,594.8 88.2,597.1 329.9,579.8 573.9,561 553.4,274.8 533.7,18.1 
						299.1,27.2 					"/>
					<polygon fill="#D0D0D0" points="64.3,37.3 74.6,300.9 87.1,594.7 87.6,597.1 329.6,579.3 573.9,560.5 552.9,274.6 533.1,18.1 
						298.9,27.3 					"/>
					<polygon fill="#DBDBDB" points="64.3,36.9 74.6,300.6 86.6,594.5 86.9,597.1 329.2,578.9 573.8,560.1 552.4,274.4 532.6,18.1 
						298.6,27.3 					"/>
					<polygon fill="#E6E6E6" points="573.8,559.6 532.1,18.1 64.3,36.4 86.1,594.4 86.3,597.1 					"/>
				</g>
			</g>
		</mask>
		<polygon id="Shadow_2_" mask="url(#Shadow_7_)" fill="#B3B3B3" points="563.1,278.2 543,17.7 532.1,18.1 573.8,559.6 97.1,596.3 
			97.2,596.8 336.3,587.5 574.4,569.1 		"/>
	</g>
	<g id="First_x5F_Page">
		
			<linearGradient id="SVGID_3_" gradientUnits="userSpaceOnUse" x1="488.6141" y1="292.6729" x2="977.575" y2="292.6729" gradientTransform="matrix(-0.9971 7.680000e-02 7.680000e-02 0.9971 1016.9777 -49.552)">
			<stop  offset="0" style="stop-color:#EFF0F1"/>
			<stop  offset="0.3846" style="stop-color:#F8F8F9"/>
			<stop  offset="0.5385" style="stop-color:#FCFCFC"/>
			<stop  offset="0.9341" style="stop-color:#F9F9F9"/>
			<stop  offset="1" style="stop-color:#EFEFEF"/>
		</linearGradient>
		<polygon fill="url(#SVGID_3_)" points="86.3,597.1 573.8,559.6 530.7,0 43.2,37.5 		"/>
		<g>
			
				<rect x="88" y="79.5" transform="matrix(0.9971 -7.671909e-02 7.671909e-02 0.9971 -5.3851 22.6247)" fill="#999999" width="407.5" height="3.9"/>
			
				<rect x="90.5" y="111.4" transform="matrix(0.9971 -7.671999e-02 7.671999e-02 0.9971 -7.8273 22.9075)" fill="#999999" width="407.5" height="3.9"/>
			
				<rect x="92.9" y="143.3" transform="matrix(0.9971 -7.671866e-02 7.671866e-02 0.9971 -10.2694 23.1897)" fill="#999999" width="407.5" height="3.9"/>
			
				<rect x="95.4" y="175.2" transform="matrix(0.9971 -7.671765e-02 7.671765e-02 0.9971 -12.7115 23.472)" fill="#999999" width="407.5" height="3.9"/>
			
				<rect x="97.8" y="207.2" transform="matrix(0.9971 -7.672015e-02 7.672015e-02 0.9971 -15.1541 23.7553)" fill="#999999" width="407.5" height="3.9"/>
			
				<rect x="100.3" y="239.1" transform="matrix(0.9971 -7.671884e-02 7.671884e-02 0.9971 -17.5961 24.0375)" fill="#999999" width="407.5" height="3.9"/>
			
				<rect x="102.8" y="271" transform="matrix(0.9971 -7.671877e-02 7.671877e-02 0.9971 -20.0382 24.32)" fill="#999999" width="407.5" height="3.9"/>
			
				<rect x="105.2" y="302.9" transform="matrix(0.9971 -7.671988e-02 7.671988e-02 0.9971 -22.4808 24.603)" fill="#999999" width="407.5" height="3.9"/>
			
				<rect x="107.7" y="334.9" transform="matrix(0.9971 -7.671765e-02 7.671765e-02 0.9971 -24.9222 24.8848)" fill="#999999" width="407.5" height="3.9"/>
			
				<rect x="110.1" y="366.8" transform="matrix(0.9971 -7.672246e-02 7.672246e-02 0.9971 -27.366 25.169)" fill="#999999" width="407.5" height="3.9"/>
			
				<rect x="112.6" y="398.7" transform="matrix(0.9971 -7.672251e-02 7.672251e-02 0.9971 -29.8083 25.4516)" fill="#999999" width="407.5" height="3.9"/>
			
				<rect x="115" y="430.7" transform="matrix(0.9971 -7.671536e-02 7.671536e-02 0.9971 -32.2478 25.7317)" fill="#999999" width="407.5" height="3.9"/>
			
				<rect x="117.5" y="462.6" transform="matrix(0.9971 -7.672266e-02 7.672266e-02 0.9971 -34.6931 26.0169)" fill="#999999" width="407.5" height="3.9"/>
			
				<rect x="119.9" y="494.5" transform="matrix(0.9971 -7.671747e-02 7.671747e-02 0.9971 -37.1329 26.2976)" fill="#999999" width="407.5" height="3.9"/>
			
				<rect x="122.4" y="526.4" transform="matrix(0.9971 -7.672009e-02 7.672009e-02 0.9971 -39.5765 26.5811)" fill="#999999" width="407.5" height="3.9"/>
		</g>
	</g>
	<g id="PDF">
		<g>
			<defs>
				<filter id="Adobe_OpacityMaskFilter_4_" filterUnits="userSpaceOnUse" x="51.8" y="128.6" width="271.1" height="143.4">
					<feColorMatrix  type="matrix" values="1 0 0 0 0  0 1 0 0 0  0 0 1 0 0  0 0 0 1 0"/>
				</filter>
			</defs>
			<mask maskUnits="userSpaceOnUse" x="51.8" y="128.6" width="271.1" height="143.4" id="SVGID_4_">
				<g filter="url(#Adobe_OpacityMaskFilter_4_)">
					<g>
						<path d="M302.6,251.9L138,264.5l0,0c-58.9,4.5-116.6,8-115.1,27.6l-9.4-122c-1.5-20,58.5-24.6,118.6-29.3l157.7-12.1
							c0.9-0.1,1.7-0.1,2.6,0c15.5,0,23.3,7.7,24.7,26.3l5.6,73.4C323.7,240.4,314.6,251,302.6,251.9z"/>
						<path fill="#090909" d="M302.1,251.4l-164.6,12.7l0,0c-58.9,4.5-116.6,8-115.1,27.6l-9.3-121.3c-1.5-20,58.5-24.6,118.6-29.3
							L289.4,129c0.9-0.1,1.7-0.1,2.6,0c15.5,0,23.3,7.7,24.7,26.3l5.6,72.7C323.2,239.9,314.1,250.5,302.1,251.4z"/>
						<path fill="#121212" d="M301.6,251L137,263.6l0,0c-58.9,4.5-116.6,8-115.1,27.6l-9.3-120.5c-1.5-20,58.5-24.6,118.6-29.3
							l157.7-12.1c0.9-0.1,1.7-0.1,2.6,0c15.5,0,23.3,7.7,24.7,26.3l5.5,71.9C322.6,239.5,313.6,250.1,301.6,251z"/>
						<path fill="#1B1B1B" d="M301,250.5l-164.6,12.7l0,0c-58.9,4.5-116.6,8-115.1,27.6l-9.2-119.8c-1.5-20,58.5-24.6,118.6-29.3
							l157.7-12.1c0.9-0.1,1.7-0.1,2.6,0c15.5,0,23.3,7.7,24.7,26.3l5.5,71.2C322.1,239,313.1,249.6,301,250.5z"/>
						<path fill="#232323" d="M300.5,250.1L136,262.8l0,0c-58.9,4.5-116.6,8-115.1,27.6l-9.2-119.1c-1.5-20,58.5-24.6,118.6-29.3
							L288,129.8c0.9-0.1,1.7-0.1,2.6,0c15.5,0,23.3,7.7,24.7,26.3l5.4,70.5C321.6,238.6,312.5,249.2,300.5,250.1z"/>
						<path fill="#2C2C2C" d="M300,249.6l-164.6,12.7l0,0c-58.9,4.5-116.6,8-115.1,27.6l-9.1-118.4c-1.5-20,58.5-24.6,118.6-29.3
							l157.7-12.1c0.9-0.1,1.7-0.1,2.6,0c15.5,0,23.3,7.7,24.7,26.3l5.4,69.8C321.1,238.1,312,248.7,300,249.6z"/>
						<path fill="#353535" d="M299.5,249.2l-164.6,12.7l0,0c-58.9,4.5-116.6,8-115.1,27.6l-9.1-117.6c-1.5-20,58.5-24.6,118.6-29.3
							L287,130.4c0.9-0.1,1.7-0.1,2.6,0c15.5,0,23.3,7.7,24.7,26.3l5.3,69C320.6,237.7,311.5,248.3,299.5,249.2z"/>
						<path fill="#3E3E3E" d="M299,248.8l-164.6,12.7l0,0c-58.9,4.5-116.6,8-115.1,27.6l-9-116.9c-1.5-20,58.5-24.6,118.6-29.3
							l157.7-12.1c0.9-0.1,1.7-0.1,2.6,0c15.5,0,23.3,7.7,24.7,26.3l5.3,68.3C320,237.2,311,247.8,299,248.8z"/>
						<path fill="#474747" d="M298.4,248.3L133.9,261l0,0c-58.9,4.5-116.6,8-115.1,27.6L9.9,172.4c-1.5-20,58.5-24.6,118.6-29.3
							L286.1,131c0.9-0.1,1.7-0.1,2.6,0c15.5,0,23.3,7.7,24.7,26.3l5.2,67.6C319.5,236.8,310.4,247.4,298.4,248.3z"/>
						<path fill="#505050" d="M297.9,247.9l-164.6,12.7l0,0c-58.9,4.5-116.6,8-115.1,27.6L9.4,172.6c-1.5-20,58.5-24.6,118.6-29.3
							l157.7-12.1c0.9-0.1,1.7-0.1,2.6,0c15.5,0,23.3,7.7,24.7,26.3l5.1,66.8C319,236.3,309.9,246.9,297.9,247.9z"/>
						<path fill="#585858" d="M297.4,247.4l-164.6,12.7l0,0c-58.9,4.5-116.6,8-115.1,27.6L8.9,172.9c-1.5-20,58.5-24.6,118.6-29.3
							l157.7-12.1c0.9-0.1,1.7-0.1,2.6,0c15.5,0,23.3,7.7,24.7,26.3l5.1,66.1C318.5,235.9,309.4,246.5,297.4,247.4z"/>
						<path fill="#616161" d="M296.9,247l-164.6,12.7l0,0c-58.9,4.5-116.6,8-115.1,27.6l-8.8-114c-1.5-20,58.5-24.6,118.6-29.3
							l157.7-12.1c0.9-0.1,1.7-0.1,2.6,0c15.5,0,23.3,7.7,24.7,26.3l5,65.4C318,235.5,308.9,246,296.9,247z"/>
						<path fill="#6A6A6A" d="M296.3,246.5l-164.6,12.7l0,0c-58.9,4.5-116.6,8-115.1,27.6L8,173.5c-1.5-20,58.5-24.6,118.6-29.3
							l157.7-12.1c0.9-0.1,1.7-0.1,2.6,0c15.5,0,23.3,7.7,24.7,26.3l5,64.7C317.4,235,308.4,245.6,296.3,246.5z"/>
						<path fill="#737373" d="M295.8,246.1l-164.6,12.7l0,0c-58.9,4.5-116.6,8-115.1,27.6L7.5,173.8c-1.5-20,58.5-24.6,118.6-29.3
							l157.7-12.1c0.9-0.1,1.7-0.1,2.6,0c15.5,0,23.3,7.7,24.7,26.3l4.9,63.9C316.9,234.6,307.8,245.1,295.8,246.1z"/>
						<path fill="#7C7C7C" d="M295.3,245.6l-164.6,12.7l0,0c-58.9,4.5-116.6,8-115.1,27.6L7.1,174c-1.5-20,58.5-24.6,118.6-29.3
							l157.7-12.1c0.9-0.1,1.7-0.1,2.6,0c15.5,0,23.3,7.7,24.7,26.3l4.9,63.2C316.4,234.1,307.3,244.7,295.3,245.6z"/>
						<path fill="#858585" d="M294.8,245.2l-164.6,12.7l0,0c-58.9,4.5-116.6,8-115.1,27.6L6.6,174.3c-1.5-20,58.5-24.6,118.6-29.3
							l157.7-12.1c0.9-0.1,1.7-0.1,2.6,0c15.5,0,23.3,7.7,24.7,26.3l4.8,62.5C315.9,233.7,306.8,244.3,294.8,245.2z"/>
						<path fill="#8E8E8E" d="M294.3,244.7l-164.6,12.7l0,0c-58.9,4.5-116.6,8-115.1,27.6L6.1,174.6c-1.5-20,58.5-24.6,118.6-29.3
							l157.7-12.1c0.9-0.1,1.7-0.1,2.6,0c15.5,0,23.3,7.7,24.7,26.3l4.8,61.7C315.4,233.2,306.3,243.8,294.3,244.7z"/>
						<path fill="#969696" d="M293.7,244.3l-164.6,12.7l0,0c-58.9,4.5-116.6,8-115.1,27.6L5.7,174.9c-1.5-20,58.5-24.6,118.6-29.3
							l157.7-12.1c0.9-0.1,1.7-0.1,2.6,0c15.5,0,23.3,7.7,24.7,26.3l4.7,61C314.8,232.8,305.8,243.4,293.7,244.3z"/>
						<path fill="#9F9F9F" d="M293.2,243.8l-164.6,12.7l0,0c-58.9,4.5-116.6,8-115.1,27.6L5.2,175.2c-1.5-20,58.5-24.6,118.6-29.3
							l157.7-12.1c0.9-0.1,1.7-0.1,2.6,0c15.5,0,23.3,7.7,24.7,26.3l4.6,60.3C314.3,232.3,305.2,242.9,293.2,243.8z"/>
						<path fill="#A8A8A8" d="M292.7,243.4l-164.6,12.7l0,0c-58.9,4.5-116.6,8-115.1,27.6L4.7,175.5c-1.5-20,58.5-24.6,118.6-29.3
							L281,134.1c0.9-0.1,1.7-0.1,2.6,0c15.5,0,23.3,7.7,24.7,26.3l4.6,59.6C313.8,231.9,304.7,242.5,292.7,243.4z"/>
						<path fill="#B1B1B1" d="M292.2,242.9l-164.6,12.7l0,0c-58.9,4.5-116.6,8-115.1,27.6L4.3,175.7c-1.5-20,58.5-24.6,118.6-29.3
							l157.7-12.1c0.9-0.1,1.7-0.1,2.6,0c15.5,0,23.3,7.7,24.7,26.3l4.5,58.8C313.3,231.4,304.2,242,292.2,242.9z"/>
						<path fill="#BABABA" d="M291.7,242.5l-164.6,12.7l0,0c-58.9,4.5-116.6,8-115.1,27.6L3.8,176c-1.5-20,58.5-24.6,118.6-29.3
							l157.7-12.1c0.9-0.1,1.7-0.1,2.6,0c15.5,0,23.3,7.7,24.7,26.3l4.5,58.1C312.7,231,303.7,241.6,291.7,242.5z"/>
						<path fill="#C3C3C3" d="M291.1,242.1l-164.6,12.7l0,0c-58.9,4.5-116.6,8-115.1,27.6l-8.2-106c-1.5-20,58.5-24.6,118.6-29.3
							l157.7-12.1c0.9-0.1,1.7-0.1,2.6,0c15.5,0,23.3,7.7,24.7,26.3l4.4,57.4C312.2,230.5,303.2,241.1,291.1,242.1z"/>
						<path fill="#CBCBCB" d="M290.6,241.6l-164.6,12.7l0,0c-58.9,4.5-116.6,8-115.1,27.6L2.9,176.6c-1.5-20,58.5-24.6,118.6-29.3
							l157.7-12.1c0.9-0.1,1.7-0.1,2.6,0c15.5,0,23.3,7.7,24.7,26.3l4.4,56.7C311.7,230.1,302.6,240.7,290.6,241.6z"/>
						<path fill="#D4D4D4" d="M290.1,241.2l-164.6,12.7l0,0c-58.9,4.5-116.6,8-115.1,27.6l-8-104.5c-1.5-20,58.5-24.6,118.6-29.3
							l157.7-12.1c0.9-0.1,1.7-0.1,2.6,0c15.5,0,23.3,7.7,24.7,26.3l4.3,55.9C311.2,229.6,302.1,240.2,290.1,241.2z"/>
						<path fill="#DDDDDD" d="M289.6,240.7L125,253.4l0,0c-58.9,4.5-116.6,8-115.1,27.6L2,177.1c-1.5-20,58.5-24.6,118.6-29.3
							l157.7-12.1c0.9-0.1,1.7-0.1,2.6,0c15.5,0,23.3,7.7,24.7,26.3l4.2,55.2C310.7,229.2,301.6,239.8,289.6,240.7z"/>
						<path fill="#E6E6E6" d="M289.1,240.3l-164.6,12.7l0,0c-58.9,4.5-116.6,8-115.1,27.6L1.5,177.4c-1.5-20,58.5-24.6,118.6-29.3
							L277.7,136c0.9-0.1,1.7-0.1,2.6,0c15.5,0,23.3,7.7,24.7,26.3l4.2,54.5C310.1,228.8,301.1,239.3,289.1,240.3z"/>
					</g>
				</g>
			</mask>
			<path mask="url(#SVGID_4_)" fill="#999999" d="M289.8,128.7c0.9-0.1,1.7-0.1,2.6,0c15.5,0,23.3,7.7,24.7,26.3l5.6,73.4
				c0.9,12-8.1,22.6-20.2,23.5L138,264.5l0,0c-27.9,2.1-55.6,4-76.9,7.5l-9.4-122.7c22.1-4,51.2-6.3,80.4-8.5L289.8,128.7z"/>
			<g>
				<g>
					
						<linearGradient id="SVGID_5_" gradientUnits="userSpaceOnUse" x1="574.166" y1="603.2934" x2="574.166" y2="907.0894" gradientTransform="matrix(7.670000e-02 0.9971 0.9971 -7.670000e-02 -641.6304 -316.7519)">
						<stop  offset="0" style="stop-color:#CF0000"/>
						<stop  offset="0.3956" style="stop-color:#BD0000"/>
						<stop  offset="1" style="stop-color:#990000"/>
					</linearGradient>
					<path fill="url(#SVGID_5_)" d="M9.4,280.5L0.3,161.8c-1.5-20,122.2-32.8,122.2-32.8l152.3-11.7c18.2-1.4,27.2,5.3,28.5,23
						l5.8,74.8c0.9,12-8,24.3-20,25.2l-164.6,12.7l0,0C65.7,257.4,7.9,260.9,9.4,280.5z"/>
					
						<linearGradient id="SVGID_6_" gradientUnits="userSpaceOnUse" x1="573.2304" y1="602.5358" x2="573.2304" y2="879.9221" gradientTransform="matrix(7.670000e-02 0.9971 0.9971 -7.670000e-02 -641.6304 -316.7519)">
						<stop  offset="0" style="stop-color:#FE0F1F"/>
						<stop  offset="8.210198e-03" style="stop-color:#FE2130"/>
						<stop  offset="2.477282e-02" style="stop-color:#FE515D"/>
						<stop  offset="4.799889e-02" style="stop-color:#FD9EA4"/>
						<stop  offset="5.000000e-02" style="stop-color:#FDA5AA"/>
						<stop  offset="0.15" style="stop-color:#F60D1B"/>
						<stop  offset="1" style="stop-color:#C80302"/>
					</linearGradient>
					<path fill="url(#SVGID_6_)" d="M9.3,278.6L0,158.5c-1.5-20,58.5-24.6,118.6-29.3l157.7-12.1c12-0.9,22.6,8.1,23.5,20.2
						l5.9,76.5c0.9,12-8.1,22.6-20.2,23.5l-157.7,12.1C67.8,254,7.7,258.6,9.3,278.6z"/>
				</g>
			</g>
		</g>
		<g>
			<path fill="#FFFFFF" d="M88.7,227l-5.4-69.6l22.6-1.7c8.6-0.7,14.2-0.7,16.8-0.2c4.1,0.7,7.6,2.8,10.5,6c3,3.3,4.7,7.7,5.1,13.3
				c0.3,4.3-0.2,7.9-1.5,11c-1.3,3-3.1,5.5-5.4,7.3c-2.3,1.8-4.6,3.1-7,3.9c-3.3,0.9-8.1,1.6-14.5,2.1l-9.2,0.7l2,26.3L88.7,227z
				 M98.3,168l1.5,19.8l7.7-0.6c5.5-0.4,9.2-1.1,11-1.9c1.8-0.9,3.2-2.1,4.1-3.8c0.9-1.6,1.3-3.5,1.2-5.5c-0.2-2.5-1.1-4.6-2.7-6.1
				c-1.6-1.5-3.6-2.4-5.9-2.7c-1.7-0.2-5.1-0.1-10.2,0.3L98.3,168z"/>
			<path fill="#FFFFFF" d="M148.2,152.4l25.7-2c5.8-0.4,10.2-0.3,13.4,0.3c4.2,0.9,7.8,2.8,11,5.6c3.1,2.8,5.7,6.4,7.5,10.8
				c1.9,4.3,3,9.8,3.5,16.3c0.4,5.7,0.1,10.7-1,15c-1.4,5.2-3.5,9.5-6.5,12.9c-2.3,2.6-5.4,4.7-9.5,6.3c-3,1.2-7.1,2-12.3,2.4
				l-26.5,2L148.2,152.4z M163.1,163l3.5,46.1l10.5-0.8c3.9-0.3,6.7-0.7,8.5-1.3c2.2-0.7,4.1-1.9,5.5-3.3c1.4-1.5,2.5-3.8,3.2-7
				c0.7-3.2,0.9-7.5,0.4-12.9c-0.4-5.4-1.2-9.5-2.4-12.3c-1.2-2.8-2.7-5-4.5-6.4c-1.8-1.5-4.1-2.4-6.8-2.8c-2-0.3-5.9-0.2-11.6,0.2
				L163.1,163z"/>
			<path fill="#FFFFFF" d="M223.9,216.6l-5.4-69.6l47.7-3.7l0.9,11.8l-33.7,2.6l1.3,16.5l29.1-2.2l0.9,11.8l-29.1,2.2l2.3,29.6
				L223.9,216.6z"/>
		</g>
	</g>
</g>
</svg>
