<?xml version="1.0" encoding="utf-8"?>
<!-- Generator: Adobe Illustrator 18.0.0, SVG Export Plug-In . SVG Version: 6.00 Build 0)  -->
<!DOCTYPE svg PUBLIC "-//W3C//DTD SVG 1.1//EN" "http://www.w3.org/Graphics/SVG/1.1/DTD/svg11.dtd">
<svg version="1.1" id="Layer_1" xmlns="http://www.w3.org/2000/svg" xmlns:xlink="http://www.w3.org/1999/xlink" x="0px" y="0px"
	 viewBox="228.3 237 128 128" enable-background="new 228.3 237 128 128" xml:space="preserve">
<g id="Shape_41">
	<g>
		<path fill="#FFFFFF" d="M353.1,345.6L331.5,324c5.4-8.5,7.7-19.3,7.7-30.1c0-30.1-23.9-54.1-54.1-54.1
			c-30.1,0-54.1,24.7-54.1,54.8c0,30.1,23.9,53.3,54.1,53.3c10.8,0,21.6-2.3,30.1-7.7l21.6,21.6c1.5,1.5,3.9,1.5,5.4,0l10.8-10.8
			C354.7,349.5,354.7,347.2,353.1,345.6z M285.1,332.5c-21.6,0-38.6-17.8-38.6-38.6c0-21.6,17-38.6,38.6-38.6
			c21.6,0,38.6,17,38.6,38.6C323.8,314.7,306.8,332.5,285.1,332.5z M292.9,270.7h-15.4v15.4H262v15.4h15.4V317h15.4v-15.4h15.4
			v-15.4h-15.4V270.7z"/>
	</g>
	<g>
		<path fill="none" stroke="#5E5F5F" stroke-miterlimit="10" d="M353.1,345.6L331.5,324c5.4-8.5,7.7-19.3,7.7-30.1
			c0-30.1-23.9-54.1-54.1-54.1c-30.1,0-54.1,24.7-54.1,54.8c0,30.1,23.9,53.3,54.1,53.3c10.8,0,21.6-2.3,30.1-7.7l21.6,21.6
			c1.5,1.5,3.9,1.5,5.4,0l10.8-10.8C354.7,349.5,354.7,347.2,353.1,345.6z M285.1,332.5c-21.6,0-38.6-17.8-38.6-38.6
			c0-21.6,17-38.6,38.6-38.6c21.6,0,38.6,17,38.6,38.6C323.8,314.7,306.8,332.5,285.1,332.5z M292.9,270.7h-15.4v15.4H262v15.4h15.4
			V317h15.4v-15.4h15.4v-15.4h-15.4V270.7z"/>
	</g>
</g>
</svg>
