<?xml version="1.0" encoding="utf-8"?>
<!-- Generator: Adobe Illustrator 18.1.1, SVG Export Plug-In . SVG Version: 6.00 Build 0)  -->
<!DOCTYPE svg PUBLIC "-//W3C//DTD SVG 1.1//EN" "http://www.w3.org/Graphics/SVG/1.1/DTD/svg11.dtd">
<svg version="1.1" xmlns="http://www.w3.org/2000/svg" xmlns:xlink="http://www.w3.org/1999/xlink" x="0px" y="0px" width="180px"
	 height="180px" viewBox="260 160.5 180 180" enable-background="new 260 160.5 180 180" xml:space="preserve">
<g id="Circle_Placeholder">
	<circle opacity="0.8" fill="none" cx="350" cy="250.5" r="90"/>
</g>
<g id="Active">
	<g id="Speaking_1_" transform="matrix( 1, 0, 0, 1, 0,0) " display="none">
		<path display="inline" fill="#59B548" d="M382.9,235.2c-11.1,0-20.5,3.9-28.3,11.7c-6.5,6.6-10.3,14.4-11.3,23.5
			c-0.1,0.7-0.2,1.5-0.2,2.3c0,0.9,0,1.7,0,2.6c0,3.6,0.4,7,1.2,10.2h0.2h23.9c-0.9,7.3-6.3,12.2-16.1,14.8c-0.2,0-0.4,0.1-0.5,0.1
			c0.9,1.1,1.8,2.1,2.9,3.2c7.8,7.7,17.2,11.6,28.3,11.6c11,0,20.5-3.9,28.3-11.6c7.8-7.8,11.7-17.2,11.7-28.3
			c0-11.1-3.9-20.6-11.7-28.3C403.4,239.1,393.9,235.2,382.9,235.2 M351,228.3c0-1.4,0-2.9-0.1-4.2h-80.2c-0.1,1.4-0.2,2.8-0.2,4.2
			c0,11.1,3.9,20.6,11.8,28.5c7.9,7.9,17.4,11.8,28.5,11.8c4.6,0,8.9-0.6,12.9-1.9l16.5,3.1l-7-7.9c2.1-1.4,4.2-3.1,6.1-5.1
			C347,248.9,351,239.4,351,228.3z"/>
		<path display="inline" fill="#FFFFFF" d="M368.4,285.3h-23.9c1.4,5.4,4,10.3,7.8,14.8C362.1,297.6,367.4,292.6,368.4,285.3z"/>
	</g>
	<g id="Listening_1_" transform="matrix( 1, 0, 0, 1, 0,0) " display="none">
		<path display="inline" fill="#59B548" d="M388.1,217.9c-10.7-10.7-23.6-16.1-38.7-16.1c-15.1,0-28,5.4-38.8,16.1
			c-10.7,10.7-16.1,23.7-16.1,38.8c0,15.1,5.4,28,16.1,38.7c10.7,10.7,23.7,16.1,38.8,16.1c15.1,0,28-5.4,38.7-16.1
			c10.7-10.7,16.1-23.6,16.1-38.7C404.2,241.6,398.8,228.7,388.1,217.9 M382.1,272.1c-3.7,14.3-14.5,21.5-32.3,21.3
			c-18.2-1-29.3-8.1-33.1-21.3H382.1 M431.4,251.2c0-7.9-2.8-14.8-8.5-20.6c-4.4-4.4-9.5-7.1-15.1-8c-3-5-6.8-9.8-11.4-14.2
			c-13-12.6-28.7-18.9-47-18.9c-18.3,0-33.9,6.3-47,18.9c-4.6,4.5-8.4,9.3-11.4,14.5c-5.3,1.2-9.9,3.8-13.9,7.8
			c-1.8,1.8-3.3,3.7-4.6,5.8c-2.7,4.4-4,9.3-4,14.8c0,5.4,1.3,10.3,4,14.8c1.2,2,2.8,3.9,4.6,5.7c3.2,3.3,6.8,5.6,10.7,7
			c2,0.7,4.2,1.2,6.6,1.4h0.1c-5-15.6-5.8-31.6-2.5-48c3-7.7,7.7-14.6,14.1-20.8c12.1-11.6,26.6-17.4,43.5-17.4s31.4,5.8,43.5,17.4
			c7.9,7.6,13.2,16.2,15.9,25.8c1.9,13,1.1,26.2-2.5,39.7c-0.3,1-0.6,2.1-1,3.3c1.9-0.2,3.7-0.5,5.4-1c4.4-1.4,8.4-3.9,12-7.5
			C428.6,266.1,431.4,259.2,431.4,251.2z"/>
		<path display="inline" fill="#FFFFFF" d="M349.7,293.4c17.9,0.1,28.6-7,32.3-21.3h-65.5C320.5,285.3,331.5,292.4,349.7,293.4z"/>
	</g>
	<g id="Writing_1_" transform="matrix( 1, 0, 0, 1, 0,0) ">
		<path fill="#59B548" d="M282.3,284.2l1.8,3.6l141.2,0.5c-2.8-12.3-16.5-23.3-41-32.8c-0.6,12.8-7.2,22.4-19.7,28.8H282.3
			 M290.3,259.3c-1.1-1-2.2-1.8-3.3-2.4l-7.2-14l-7.6,3l5.2,10.3c-1.8,0.6-3.5,1.6-5.1,3c-2.5,2.5-3.7,5.5-3.7,9s1.2,6.5,3.7,8.9
			c2.5,2.5,5.5,3.8,9,3.8c1.8,0,3.4-0.3,5-0.9c0.9-0.4,1.8-1,2.6-1.6l1.3,2.5l10.3,2.5l-6.6-13c0.1-0.7,0.2-1.5,0.2-2.2
			C294,264.9,292.8,261.9,290.3,259.3 M385.6,228.7c0-14-5-26-14.9-35.9c-9.9-9.9-21.9-14.9-35.8-14.9c-14,0-25.9,5-35.8,14.9
			c-9.9,9.9-14.9,21.9-14.9,35.9c0,14,5,25.9,14.9,35.9c9.9,9.9,21.9,14.9,35.8,14.9c14,0,25.9-5,35.8-14.9
			C380.6,254.7,385.6,242.7,385.6,228.7z M309,242.7c1.1,1.9,1.7,4.2,1.7,6.8c0,2.6-0.6,4.9-1.7,6.8c-1.2,1.9-2.6,2.9-4.3,2.9
			c-1.6,0-3-1-4.2-2.9c-1.1-1.9-1.7-4.1-1.7-6.8c0-2.6,0.6-4.9,1.7-6.8c1.2-1.9,2.6-2.9,4.2-2.9C306.5,239.8,307.9,240.8,309,242.7z
			 M343.8,249c0,2.6-0.6,4.9-1.8,6.8c-1.2,1.9-2.6,2.9-4.2,2.9c-1.7,0-3.1-1-4.2-2.9c-1.2-1.9-1.8-4.2-1.8-6.8
			c0-2.6,0.6-4.9,1.8-6.8c1.1-1.9,2.6-2.9,4.2-2.9c1.6,0,3,1,4.2,2.9C343.2,244.1,343.8,246.4,343.8,249z"/>
		<path fill="#FFFFFF" d="M304.8,239.8c-1.6,0-3,1-4.2,2.9c-1.1,1.9-1.7,4.2-1.7,6.8c0,2.6,0.6,4.9,1.7,6.8c1.2,1.9,2.6,2.9,4.2,2.9
			c1.7,0,3.1-1,4.3-2.9c1.1-1.9,1.7-4.1,1.7-6.8c0-2.6-0.6-4.9-1.7-6.8C307.9,240.8,306.5,239.8,304.8,239.8z"/>
		<path fill="#FFFFFF" d="M342,242.3c-1.2-1.9-2.6-2.9-4.2-2.9c-1.7,0-3.1,1-4.2,2.9c-1.2,1.9-1.8,4.1-1.8,6.8
			c0,2.6,0.6,4.9,1.8,6.8c1.1,1.9,2.6,2.9,4.2,2.9c1.6,0,3-1,4.2-2.9c1.2-1.9,1.8-4.2,1.8-6.8C343.8,246.4,343.2,244.1,342,242.3z"
			/>
	</g>
	<g id="Reading_1_" transform="matrix( 1, 0, 0, 1, 0,0) " display="none">
		<path display="inline" fill="#59B548" d="M348.7,323.1l51.9-20.1l22-44.4L347.1,290l-69.6-33.2l19.8,43.5L348.7,323.1
			 M349.7,177.9c-6.6,0-12.8,1-18.6,2.9c-8.2,2.7-15.6,7.4-22.2,14c-3.6,3.6-6.6,7.5-9,11.6c-5.2,8.6-7.8,18.4-7.9,29.2
			c0,9.3,1.9,17.8,5.8,25.5c0.1,0.2,0.2,0.4,0.3,0.6l49,22.5l53.9-21.6c4.3-8.1,6.5-17.1,6.5-27c0-15.9-5.6-29.5-16.9-40.8
			C379.2,183.6,365.6,177.9,349.7,177.9z"/>
		<g transform="matrix( 1, 0, 0, 1, 0,0) " display="inline">
			<g>
				<g id="Layer1_0_MEMBER_2_MEMBER_0_FILL">
					<path fill="#FFFFFF" d="M326,249.4c-1.3,2.2-1.9,4.8-2,7.8c0,3,0.6,5.5,2,7.7c1.3,2.2,2.9,3.2,4.8,3.2c1.9,0,3.5-1.1,4.9-3.2
						c1.3-2.2,1.9-4.7,1.9-7.7c0-3-0.6-5.6-1.9-7.8c-1.3-2.2-3-3.2-4.9-3.2C328.9,246.1,327.3,247.2,326,249.4z"/>
				</g>
			</g>
		</g>
		<g transform="matrix( 1, 0, 0, 1, 0,0) " display="inline">
			<g>
				<g id="Layer1_0_MEMBER_2_MEMBER_1_FILL">
					<path fill="#FFFFFF" d="M363.5,248.8c-1.3,2.2-2,4.8-2,7.8c0,3,0.7,5.6,2,7.8c1.3,2.2,2.9,3.2,4.8,3.2c1.9,0,3.5-1.1,4.8-3.2
						s2-4.8,2-7.8c0-3-0.7-5.6-2-7.8c-1.3-2.1-2.9-3.2-4.8-3.2C366.4,245.6,364.8,246.7,363.5,248.8z"/>
				</g>
			</g>
		</g>
	</g>
</g>
<g id="Layer_4">
</g>
<g id="Inactive">
	<path id="Speaking" display="none" fill="#FFFFFF" d="M391,232.6c-12.5,0-23.2,4.4-32.1,13.2c-7.4,7.4-11.7,16.3-12.8,26.6
		c-0.1,0.8-0.2,1.7-0.2,2.6c0,1-0.1,1.9-0.1,2.9c0,4,0.5,7.9,1.4,11.5h0.2h27.1c-1,8.3-7.1,13.8-18.2,16.7c-0.2,0-0.4,0.1-0.6,0.2
		c1,1.2,2.1,2.4,3.2,3.6c8.8,8.8,19.5,13.1,32.1,13.1c12.5,0,23.2-4.4,32-13.1c8.8-8.8,13.2-19.5,13.2-32c0-12.6-4.4-23.3-13.2-32.1
		C414.2,237,403.5,232.6,391,232.6 M354.9,224.9c0-1.6-0.1-3.2-0.1-4.8h-90.8c-0.2,1.6-0.3,3.2-0.2,4.8c0,12.6,4.5,23.3,13.4,32.2
		c8.9,8.9,19.6,13.4,32.2,13.4c5.2,0,10-0.7,14.6-2.2l18.7,3.5l-8-8.9c2.4-1.6,4.7-3.5,6.9-5.8C350.4,248.2,354.9,237.4,354.9,224.9
		z"/>
	<path id="Listening" display="none" fill="#FFFFFF" d="M390.1,216.2c-11.3-11.3-24.9-16.9-40.8-16.9c-15.9,0-29.5,5.6-40.8,16.9
		c-11.3,11.3-16.9,24.9-16.9,40.9c0,15.9,5.6,29.4,16.9,40.8c11.3,11.3,24.9,16.9,40.8,16.9c15.9,0,29.5-5.6,40.8-16.9
		c11.3-11.3,16.9-24.9,16.9-40.8C407,241.1,401.4,227.5,390.1,216.2 M383.8,273.2c-3.9,15.1-15.2,22.6-34,22.4
		c-19.2-1-30.8-8.5-34.9-22.4H383.8 M435.7,251.2c0-8.4-3-15.6-9-21.6c-4.7-4.7-10-7.5-15.9-8.5c-3.2-5.3-7.1-10.3-12-14.9
		c-13.7-13.3-30.2-19.9-49.5-19.9c-19.2,0-35.7,6.6-49.4,19.9c-4.9,4.7-8.9,9.8-12,15.2c-5.5,1.3-10.4,4-14.7,8.2
		c-1.9,1.9-3.5,3.9-4.8,6.1c-2.8,4.6-4.2,9.8-4.2,15.6c0,5.7,1.4,10.9,4.2,15.5c1.3,2.1,2.9,4.1,4.8,6.1c3.4,3.4,7.2,5.9,11.3,7.3
		c2.1,0.8,4.4,1.2,6.9,1.5h0.1c-5.2-16.4-6.1-33.3-2.6-50.5c3.2-8.1,8.1-15.4,14.8-21.9c12.7-12.2,28-18.4,45.8-18.4
		c17.8,0,33.1,6.1,45.8,18.4c8.3,8,13.9,17.1,16.8,27.2c2,13.7,1.1,27.6-2.6,41.8c-0.3,1.1-0.7,2.2-1.1,3.5c2-0.2,3.9-0.5,5.6-1
		c4.7-1.5,8.9-4.1,12.7-7.9C432.7,266.9,435.7,259.7,435.7,251.2z"/>
	<path id="Writing" display="none" fill="#FFFFFF" d="M282.3,284.2l1.8,3.6l141.2,0.5c-2.8-12.3-16.5-23.3-41-32.8
		c-0.6,12.8-7.2,22.4-19.7,28.8H282.3 M290.3,259.3c-1.1-1-2.2-1.8-3.3-2.4l-7.2-14l-7.6,3l5.2,10.3c-1.8,0.6-3.5,1.6-5.1,3
		c-2.5,2.5-3.7,5.5-3.7,9s1.2,6.5,3.7,8.9c2.5,2.5,5.5,3.8,9,3.8c1.8,0,3.4-0.3,5-0.9c0.9-0.4,1.8-1,2.6-1.6l1.3,2.5l10.3,2.5
		l-6.6-13c0.1-0.7,0.2-1.5,0.2-2.2C294,264.9,292.8,261.9,290.3,259.3 M385.6,228.7c0-14-5-26-14.9-35.9
		c-9.9-9.9-21.9-14.9-35.8-14.9c-14,0-25.9,5-35.8,14.9c-9.9,9.9-14.9,21.9-14.9,35.9c0,14,5,25.9,14.9,35.9
		c9.9,9.9,21.9,14.9,35.8,14.9c14,0,25.9-5,35.8-14.9C380.6,254.7,385.6,242.7,385.6,228.7z M309,242.7c1.1,1.9,1.7,4.2,1.7,6.8
		c0,2.6-0.6,4.9-1.7,6.8c-1.2,1.9-2.6,2.9-4.3,2.9c-1.6,0-3-1-4.2-2.9c-1.1-1.9-1.7-4.1-1.7-6.8c0-2.6,0.6-4.9,1.7-6.8
		c1.2-1.9,2.6-2.9,4.2-2.9C306.5,239.8,307.9,240.8,309,242.7z M343.8,249c0,2.6-0.6,4.9-1.8,6.8c-1.2,1.9-2.6,2.9-4.2,2.9
		c-1.7,0-3.1-1-4.2-2.9c-1.2-1.9-1.8-4.2-1.8-6.8c0-2.6,0.6-4.9,1.8-6.8c1.1-1.9,2.6-2.9,4.2-2.9c1.6,0,3,1,4.2,2.9
		C343.2,244.1,343.8,246.4,343.8,249z"/>
	<path id="Reading" display="none" fill="#FFFFFF" d="M348.7,323.1l51.9-20.1l22-44.4L347.1,290l-69.6-33.2l19.8,43.5L348.7,323.1
		 M390.5,194.8c-11.3-11.3-24.9-16.9-40.8-16.9c-6.6,0-12.8,1-18.6,2.9c-8.2,2.7-15.6,7.4-22.2,14c-3.6,3.6-6.6,7.5-9,11.6
		c-5.2,8.6-7.8,18.4-7.8,29.2c0,9.3,1.9,17.8,5.8,25.5c0.1,0.2,0.2,0.4,0.3,0.5l49,22.6l53.8-21.6c4.3-8.1,6.5-17.1,6.5-27
		C407.4,219.7,401.7,206.1,390.5,194.8z M335.6,264.8c-1.3,2.2-3,3.2-4.8,3.2c-1.9,0-3.5-1.1-4.8-3.2c-1.3-2.2-1.9-4.7-1.9-7.7
		c0-3,0.6-5.6,1.9-7.8c1.3-2.2,2.9-3.2,4.8-3.2c1.9,0,3.5,1.1,4.8,3.2c1.3,2.2,1.9,4.8,2,7.8C337.6,260.1,336.9,262.7,335.6,264.8z
		 M373.1,264.3c-1.3,2.2-2.9,3.2-4.8,3.2c-1.9,0-3.5-1.1-4.8-3.2c-1.3-2.2-2-4.8-2-7.8s0.7-5.6,2-7.8c1.3-2.1,2.9-3.2,4.8-3.2
		c1.9,0,3.5,1.1,4.8,3.2c1.3,2.2,2,4.8,2,7.8S374.5,262.2,373.1,264.3z"/>
</g>
</svg>
