<?xml version="1.0" encoding="utf-8"?>
<!-- Generator: Adobe Illustrator 19.0.0, SVG Export Plug-In . SVG Version: 6.00 Build 0)  -->
<!DOCTYPE svg PUBLIC "-//W3C//DTD SVG 1.1//EN" "http://www.w3.org/Graphics/SVG/1.1/DTD/svg11.dtd">
<svg version="1.1" id="Layer_1" xmlns="http://www.w3.org/2000/svg" xmlns:xlink="http://www.w3.org/1999/xlink" x="0px" y="0px"
	 width="92px" height="92px" viewBox="-433 235 92 92" enable-background="new -433 235 92 92" xml:space="preserve">
<g transform="matrix( 1, 0, 0, 1, 0,0) ">
	<g>
		<g id="Layer2_0_FILL">
			
				<radialGradient id="SVGID_1_" cx="-376.3925" cy="604.2744" r="69.816" fx="-354.2727" fy="618.9717" gradientTransform="matrix(0.8329 0.5534 0.5962 -0.8979 -431.3757 1002.9279)" gradientUnits="userSpaceOnUse">
				<stop  offset="0" style="stop-color:#FF664A"/>
				<stop  offset="1" style="stop-color:#DC4C31"/>
			</radialGradient>
			<path fill="url(#SVGID_1_)" d="M-354.5,248.4c-9-9-19.8-13.4-32.5-13.4c-12.7,0-23.6,4.5-32.6,13.4c-9,9-13.5,19.9-13.5,32.6
				c0,12.7,4.5,23.5,13.5,32.5c9,9,19.9,13.5,32.6,13.5c12.7,0,23.5-4.5,32.5-13.5c9-9,13.5-19.8,13.5-32.5
				C-341,268.3-345.5,257.5-354.5,248.4z"/>
		</g>
	</g>
</g>
<g transform="matrix( 1, 0, 0, 1, 0,0) " display="none">
	<g display="inline">
		<g id="Layer1_0_FILL">
			
				<linearGradient id="SVGID_2_" gradientUnits="userSpaceOnUse" x1="-385.8109" y1="279.0477" x2="-387.9609" y2="360.9977" gradientTransform="matrix(1 0 0 -1 0 564)">
				<stop  offset="0" style="stop-color:#FFFFFF;stop-opacity:0"/>
				<stop  offset="1" style="stop-color:#FFFFFF;stop-opacity:0.7098"/>
				<stop  offset="1" style="stop-color:#000000;stop-opacity:0.2118"/>
			</linearGradient>
			<path fill="url(#SVGID_2_)" d="M-352.5,269c0.2-1.5,0.4-3,0.4-4.6c0-4.1-1-7.9-2.9-11.3c-1.5-2.2-3.3-4.2-5.4-6.2
				c-7.2-6.4-15.9-9.6-26-9.6c-10.2,0-18.9,3.2-26.1,9.6c-1.7,1.5-3.2,3.2-4.5,4.9c-2.1,3.2-3.2,6.8-3.5,10.7c0,0.6,0,1.3,0,1.9
				c0,7.8,3.3,14.4,9.9,19.8c6.7,5.5,14.8,8.2,24.2,8.2c9.5,0,17.6-2.8,24.2-8.2C-356.8,279.8-353.6,274.8-352.5,269z"/>
		</g>
	</g>
</g>
<circle fill="none" stroke="#FFFFFF" stroke-width="3" stroke-miterlimit="10" cx="-387" cy="281" r="39.2"/>
<line fill="none" stroke="#FFFFFF" stroke-width="3" stroke-linecap="round" stroke-linejoin="round" stroke-miterlimit="10" x1="-356.4" y1="311.6" x2="-362.1" y2="305.9"/>
</svg>
